<mxfile host="app.diagrams.net" agent="Mozilla/5.0 (Windows NT 10.0; Win64; x64) AppleWebKit/537.36 (KHTML, like Gecko) Chrome/131.0.0.0 Safari/537.36" version="26.0.2">
  <diagram name="Page-1" id="0783ab3e-0a74-02c8-0abd-f7b4e66b4bec">
    <mxGraphModel grid="1" page="1" gridSize="10" guides="1" tooltips="1" connect="1" arrows="1" fold="1" pageScale="1" pageWidth="850" pageHeight="1100" background="none" math="0" shadow="0">
      <root>
        <mxCell id="0" />
        <mxCell id="1" parent="0" />
        <mxCell id="1c1d494c118603dd-1" value="Pool" style="swimlane;html=1;childLayout=stackLayout;startSize=20;rounded=0;shadow=0;comic=0;labelBackgroundColor=none;strokeWidth=1;fontFamily=Verdana;fontSize=12;align=center;" vertex="1" parent="1">
          <mxGeometry x="40" y="20" width="590" height="870" as="geometry">
            <mxRectangle x="40" y="20" width="70" height="30" as="alternateBounds" />
          </mxGeometry>
        </mxCell>
        <mxCell id="1c1d494c118603dd-2" value="客戶" style="swimlane;html=1;startSize=20;" vertex="1" parent="1c1d494c118603dd-1">
          <mxGeometry y="20" width="170" height="850" as="geometry" />
        </mxCell>
        <mxCell id="8mo7Bxhhr-cQST-nDjyO-32" style="edgeStyle=orthogonalEdgeStyle;rounded=0;orthogonalLoop=1;jettySize=auto;html=1;entryX=0.5;entryY=0;entryDx=0;entryDy=0;" edge="1" parent="1c1d494c118603dd-2" source="8mo7Bxhhr-cQST-nDjyO-6" target="8mo7Bxhhr-cQST-nDjyO-7">
          <mxGeometry relative="1" as="geometry" />
        </mxCell>
        <mxCell id="8mo7Bxhhr-cQST-nDjyO-6" value="" style="ellipse;whiteSpace=wrap;html=1;aspect=fixed;fillColor=#000000;" vertex="1" parent="1c1d494c118603dd-2">
          <mxGeometry x="70" y="50" width="30" height="30" as="geometry" />
        </mxCell>
        <mxCell id="8mo7Bxhhr-cQST-nDjyO-33" style="edgeStyle=orthogonalEdgeStyle;rounded=0;orthogonalLoop=1;jettySize=auto;html=1;entryX=0.5;entryY=0;entryDx=0;entryDy=0;" edge="1" parent="1c1d494c118603dd-2" source="8mo7Bxhhr-cQST-nDjyO-7" target="8mo7Bxhhr-cQST-nDjyO-8">
          <mxGeometry relative="1" as="geometry" />
        </mxCell>
        <mxCell id="8mo7Bxhhr-cQST-nDjyO-7" value="插入卡" style="rounded=1;whiteSpace=wrap;html=1;" vertex="1" parent="1c1d494c118603dd-2">
          <mxGeometry x="60" y="100" width="50" height="20" as="geometry" />
        </mxCell>
        <mxCell id="8mo7Bxhhr-cQST-nDjyO-8" value="" style="rounded=0;whiteSpace=wrap;html=1;fillColor=#000000;" vertex="1" parent="1c1d494c118603dd-2">
          <mxGeometry x="50" y="150" width="70" height="10" as="geometry" />
        </mxCell>
        <mxCell id="1c1d494c118603dd-3" value="ATM系統" style="swimlane;html=1;startSize=20;" vertex="1" parent="1c1d494c118603dd-1">
          <mxGeometry x="170" y="20" width="420" height="850" as="geometry" />
        </mxCell>
        <mxCell id="8mo7Bxhhr-cQST-nDjyO-29" style="edgeStyle=orthogonalEdgeStyle;rounded=0;orthogonalLoop=1;jettySize=auto;html=1;entryX=0;entryY=0.5;entryDx=0;entryDy=0;" edge="1" parent="1c1d494c118603dd-3" source="8mo7Bxhhr-cQST-nDjyO-9" target="8mo7Bxhhr-cQST-nDjyO-20">
          <mxGeometry relative="1" as="geometry" />
        </mxCell>
        <mxCell id="8mo7Bxhhr-cQST-nDjyO-9" value="驗證卡" style="rounded=1;whiteSpace=wrap;html=1;" vertex="1" parent="1c1d494c118603dd-3">
          <mxGeometry x="50" y="310" width="60" height="20" as="geometry" />
        </mxCell>
        <mxCell id="8mo7Bxhhr-cQST-nDjyO-31" style="edgeStyle=orthogonalEdgeStyle;rounded=0;orthogonalLoop=1;jettySize=auto;html=1;entryX=0.5;entryY=0;entryDx=0;entryDy=0;" edge="1" parent="1c1d494c118603dd-3" source="8mo7Bxhhr-cQST-nDjyO-18" target="8mo7Bxhhr-cQST-nDjyO-20">
          <mxGeometry relative="1" as="geometry" />
        </mxCell>
        <mxCell id="8mo7Bxhhr-cQST-nDjyO-18" value="驗證PIN" style="rounded=1;whiteSpace=wrap;html=1;" vertex="1" parent="1c1d494c118603dd-3">
          <mxGeometry x="180" y="310" width="60" height="20" as="geometry" />
        </mxCell>
        <mxCell id="8mo7Bxhhr-cQST-nDjyO-30" style="edgeStyle=orthogonalEdgeStyle;rounded=0;orthogonalLoop=1;jettySize=auto;html=1;entryX=1;entryY=0.5;entryDx=0;entryDy=0;" edge="1" parent="1c1d494c118603dd-3" source="8mo7Bxhhr-cQST-nDjyO-19" target="8mo7Bxhhr-cQST-nDjyO-20">
          <mxGeometry relative="1" as="geometry" />
        </mxCell>
        <mxCell id="8mo7Bxhhr-cQST-nDjyO-19" value="驗證餘額" style="rounded=1;whiteSpace=wrap;html=1;" vertex="1" parent="1c1d494c118603dd-3">
          <mxGeometry x="310" y="310" width="60" height="20" as="geometry" />
        </mxCell>
        <mxCell id="8mo7Bxhhr-cQST-nDjyO-28" style="edgeStyle=orthogonalEdgeStyle;rounded=0;orthogonalLoop=1;jettySize=auto;html=1;entryX=0.5;entryY=0;entryDx=0;entryDy=0;" edge="1" parent="1c1d494c118603dd-3" source="8mo7Bxhhr-cQST-nDjyO-20" target="8mo7Bxhhr-cQST-nDjyO-21">
          <mxGeometry relative="1" as="geometry" />
        </mxCell>
        <mxCell id="8mo7Bxhhr-cQST-nDjyO-20" value="" style="rounded=0;whiteSpace=wrap;html=1;fillColor=#000000;" vertex="1" parent="1c1d494c118603dd-3">
          <mxGeometry x="175" y="450" width="70" height="10" as="geometry" />
        </mxCell>
        <mxCell id="8mo7Bxhhr-cQST-nDjyO-26" style="edgeStyle=orthogonalEdgeStyle;rounded=0;orthogonalLoop=1;jettySize=auto;html=1;exitX=0;exitY=1;exitDx=0;exitDy=0;entryX=0.5;entryY=0;entryDx=0;entryDy=0;" edge="1" parent="1c1d494c118603dd-3" source="8mo7Bxhhr-cQST-nDjyO-21" target="8mo7Bxhhr-cQST-nDjyO-22">
          <mxGeometry relative="1" as="geometry" />
        </mxCell>
        <mxCell id="8mo7Bxhhr-cQST-nDjyO-27" style="edgeStyle=orthogonalEdgeStyle;rounded=0;orthogonalLoop=1;jettySize=auto;html=1;exitX=1;exitY=1;exitDx=0;exitDy=0;entryX=0.5;entryY=0;entryDx=0;entryDy=0;" edge="1" parent="1c1d494c118603dd-3" source="8mo7Bxhhr-cQST-nDjyO-21" target="8mo7Bxhhr-cQST-nDjyO-23">
          <mxGeometry relative="1" as="geometry" />
        </mxCell>
        <mxCell id="8mo7Bxhhr-cQST-nDjyO-21" value="" style="rhombus;whiteSpace=wrap;html=1;" vertex="1" parent="1c1d494c118603dd-3">
          <mxGeometry x="192.5" y="540" width="35" height="30" as="geometry" />
        </mxCell>
        <mxCell id="8mo7Bxhhr-cQST-nDjyO-22" value="詢問要求" style="rounded=1;whiteSpace=wrap;html=1;" vertex="1" parent="1c1d494c118603dd-3">
          <mxGeometry x="70" y="660" width="60" height="20" as="geometry" />
        </mxCell>
        <mxCell id="8mo7Bxhhr-cQST-nDjyO-25" style="edgeStyle=orthogonalEdgeStyle;rounded=0;orthogonalLoop=1;jettySize=auto;html=1;entryX=0.5;entryY=0;entryDx=0;entryDy=0;" edge="1" parent="1c1d494c118603dd-3" source="8mo7Bxhhr-cQST-nDjyO-23" target="8mo7Bxhhr-cQST-nDjyO-24">
          <mxGeometry relative="1" as="geometry" />
        </mxCell>
        <mxCell id="8mo7Bxhhr-cQST-nDjyO-23" value="顯示信息" style="rounded=1;whiteSpace=wrap;html=1;" vertex="1" parent="1c1d494c118603dd-3">
          <mxGeometry x="300" y="660" width="60" height="20" as="geometry" />
        </mxCell>
        <mxCell id="8mo7Bxhhr-cQST-nDjyO-24" value="" style="ellipse;html=1;shape=endState;fillColor=#000000;strokeColor=#ff0000;" vertex="1" parent="1c1d494c118603dd-3">
          <mxGeometry x="315" y="780" width="30" height="30" as="geometry" />
        </mxCell>
        <mxCell id="8mo7Bxhhr-cQST-nDjyO-34" style="edgeStyle=orthogonalEdgeStyle;rounded=0;orthogonalLoop=1;jettySize=auto;html=1;entryX=0.5;entryY=0;entryDx=0;entryDy=0;" edge="1" parent="1c1d494c118603dd-1" source="8mo7Bxhhr-cQST-nDjyO-8" target="8mo7Bxhhr-cQST-nDjyO-19">
          <mxGeometry relative="1" as="geometry" />
        </mxCell>
        <mxCell id="8mo7Bxhhr-cQST-nDjyO-35" style="edgeStyle=orthogonalEdgeStyle;rounded=0;orthogonalLoop=1;jettySize=auto;html=1;exitX=0.75;exitY=1;exitDx=0;exitDy=0;entryX=0.5;entryY=0;entryDx=0;entryDy=0;" edge="1" parent="1c1d494c118603dd-1" source="8mo7Bxhhr-cQST-nDjyO-8" target="8mo7Bxhhr-cQST-nDjyO-18">
          <mxGeometry relative="1" as="geometry">
            <Array as="points">
              <mxPoint x="102" y="200" />
              <mxPoint x="380" y="200" />
            </Array>
          </mxGeometry>
        </mxCell>
        <mxCell id="8mo7Bxhhr-cQST-nDjyO-36" style="edgeStyle=orthogonalEdgeStyle;rounded=0;orthogonalLoop=1;jettySize=auto;html=1;exitX=0.25;exitY=1;exitDx=0;exitDy=0;entryX=0.5;entryY=0;entryDx=0;entryDy=0;" edge="1" parent="1c1d494c118603dd-1" source="8mo7Bxhhr-cQST-nDjyO-8" target="8mo7Bxhhr-cQST-nDjyO-9">
          <mxGeometry relative="1" as="geometry" />
        </mxCell>
      </root>
    </mxGraphModel>
  </diagram>
</mxfile>
